<mxfile host="app.diagrams.net" modified="2023-03-05T19:14:07.240Z" agent="5.0 (Windows NT 10.0; Win64; x64) AppleWebKit/537.36 (KHTML, like Gecko) Chrome/110.0.0.0 Safari/537.36" etag="rm4btDgV9bEoJJf74cYR" version="21.0.2" type="github">
  <diagram id="C5RBs43oDa-KdzZeNtuy" name="Page-1">
    <mxGraphModel dx="1050" dy="549" grid="1" gridSize="10" guides="1" tooltips="1" connect="1" arrows="1" fold="1" page="1" pageScale="1" pageWidth="827" pageHeight="1169" math="0" shadow="0">
      <root>
        <mxCell id="WIyWlLk6GJQsqaUBKTNV-0" />
        <mxCell id="WIyWlLk6GJQsqaUBKTNV-1" parent="WIyWlLk6GJQsqaUBKTNV-0" />
        <mxCell id="07Z04fuiSp5d0RjuKBhp-0" value="E-ticaret sitesi&lt;br&gt;Full-stack Dev" style="rounded=1;whiteSpace=wrap;html=1;fillColor=#dae8fc;strokeColor=#6c8ebf;" parent="WIyWlLk6GJQsqaUBKTNV-1" vertex="1">
          <mxGeometry x="354" y="40" width="120" height="60" as="geometry" />
        </mxCell>
        <mxCell id="07Z04fuiSp5d0RjuKBhp-1" value="" style="endArrow=classic;html=1;rounded=0;" parent="WIyWlLk6GJQsqaUBKTNV-1" edge="1">
          <mxGeometry width="50" height="50" relative="1" as="geometry">
            <mxPoint x="379" y="100" as="sourcePoint" />
            <mxPoint x="299" y="160" as="targetPoint" />
          </mxGeometry>
        </mxCell>
        <mxCell id="07Z04fuiSp5d0RjuKBhp-2" value="" style="endArrow=classic;html=1;rounded=0;" parent="WIyWlLk6GJQsqaUBKTNV-1" edge="1">
          <mxGeometry width="50" height="50" relative="1" as="geometry">
            <mxPoint x="439" y="100" as="sourcePoint" />
            <mxPoint x="509" y="160" as="targetPoint" />
          </mxGeometry>
        </mxCell>
        <mxCell id="07Z04fuiSp5d0RjuKBhp-3" value="Kullanıcı" style="rounded=1;whiteSpace=wrap;html=1;fillColor=#e3c800;fontColor=#000000;strokeColor=#B09500;" parent="WIyWlLk6GJQsqaUBKTNV-1" vertex="1">
          <mxGeometry x="600" y="450" width="120" height="60" as="geometry" />
        </mxCell>
        <mxCell id="07Z04fuiSp5d0RjuKBhp-4" value="Admin" style="rounded=1;whiteSpace=wrap;html=1;fillColor=#0050ef;fontColor=#ffffff;strokeColor=#001DBC;" parent="WIyWlLk6GJQsqaUBKTNV-1" vertex="1">
          <mxGeometry x="90" y="450" width="120" height="60" as="geometry" />
        </mxCell>
        <mxCell id="07Z04fuiSp5d0RjuKBhp-5" value="Satıcı" style="rounded=1;whiteSpace=wrap;html=1;fillColor=#a20025;fontColor=#ffffff;strokeColor=#6F0000;" parent="WIyWlLk6GJQsqaUBKTNV-1" vertex="1">
          <mxGeometry x="340" y="450" width="120" height="60" as="geometry" />
        </mxCell>
        <mxCell id="07Z04fuiSp5d0RjuKBhp-6" value="Back-end" style="rounded=0;whiteSpace=wrap;html=1;fillColor=#f8cecc;strokeColor=#b85450;" parent="WIyWlLk6GJQsqaUBKTNV-1" vertex="1">
          <mxGeometry x="239" y="160" width="120" height="60" as="geometry" />
        </mxCell>
        <mxCell id="07Z04fuiSp5d0RjuKBhp-7" value="Front-end" style="rounded=0;whiteSpace=wrap;html=1;fillColor=#647687;strokeColor=#314354;fontColor=#ffffff;" parent="WIyWlLk6GJQsqaUBKTNV-1" vertex="1">
          <mxGeometry x="474" y="160" width="120" height="60" as="geometry" />
        </mxCell>
        <mxCell id="07Z04fuiSp5d0RjuKBhp-8" value="" style="endArrow=classic;html=1;rounded=0;entryX=0.611;entryY=-0.017;entryDx=0;entryDy=0;entryPerimeter=0;" parent="WIyWlLk6GJQsqaUBKTNV-1" edge="1" target="07Z04fuiSp5d0RjuKBhp-16">
          <mxGeometry width="50" height="50" relative="1" as="geometry">
            <mxPoint x="273" y="220" as="sourcePoint" />
            <mxPoint x="240" y="260" as="targetPoint" />
            <Array as="points" />
          </mxGeometry>
        </mxCell>
        <mxCell id="07Z04fuiSp5d0RjuKBhp-11" value="" style="endArrow=classic;html=1;rounded=0;" parent="WIyWlLk6GJQsqaUBKTNV-1" edge="1">
          <mxGeometry width="50" height="50" relative="1" as="geometry">
            <mxPoint x="334" y="220" as="sourcePoint" />
            <mxPoint x="359" y="270" as="targetPoint" />
            <Array as="points">
              <mxPoint x="344" y="240" />
            </Array>
          </mxGeometry>
        </mxCell>
        <mxCell id="07Z04fuiSp5d0RjuKBhp-16" value="C#" style="rounded=0;whiteSpace=wrap;html=1;fillColor=#d80073;fontColor=#ffffff;strokeColor=#A50040;" parent="WIyWlLk6GJQsqaUBKTNV-1" vertex="1">
          <mxGeometry x="179" y="270" width="90" height="60" as="geometry" />
        </mxCell>
        <mxCell id="07Z04fuiSp5d0RjuKBhp-17" value="DB" style="rounded=0;whiteSpace=wrap;html=1;fillColor=#e1d5e7;strokeColor=#9673a6;" parent="WIyWlLk6GJQsqaUBKTNV-1" vertex="1">
          <mxGeometry x="319" y="270" width="90" height="60" as="geometry" />
        </mxCell>
        <mxCell id="07Z04fuiSp5d0RjuKBhp-18" value="" style="endArrow=classic;html=1;rounded=0;" parent="WIyWlLk6GJQsqaUBKTNV-1" edge="1">
          <mxGeometry width="50" height="50" relative="1" as="geometry">
            <mxPoint x="519" y="220" as="sourcePoint" />
            <mxPoint x="470" y="270" as="targetPoint" />
          </mxGeometry>
        </mxCell>
        <mxCell id="07Z04fuiSp5d0RjuKBhp-19" value="" style="endArrow=classic;html=1;rounded=0;" parent="WIyWlLk6GJQsqaUBKTNV-1" edge="1">
          <mxGeometry width="50" height="50" relative="1" as="geometry">
            <mxPoint x="559" y="220" as="sourcePoint" />
            <mxPoint x="610" y="270" as="targetPoint" />
          </mxGeometry>
        </mxCell>
        <mxCell id="07Z04fuiSp5d0RjuKBhp-20" value="JS&lt;br&gt;BootStrap4" style="rounded=0;whiteSpace=wrap;html=1;fillColor=#76608a;fontColor=#ffffff;strokeColor=#432D57;" parent="WIyWlLk6GJQsqaUBKTNV-1" vertex="1">
          <mxGeometry x="430" y="270" width="80" height="60" as="geometry" />
        </mxCell>
        <mxCell id="07Z04fuiSp5d0RjuKBhp-21" value="HTML5&lt;br&gt;CSS3" style="rounded=0;whiteSpace=wrap;html=1;fillColor=#b1ddf0;strokeColor=#10739e;" parent="WIyWlLk6GJQsqaUBKTNV-1" vertex="1">
          <mxGeometry x="579" y="270" width="70" height="60" as="geometry" />
        </mxCell>
        <mxCell id="07Z04fuiSp5d0RjuKBhp-24" value="" style="endArrow=classic;startArrow=classic;html=1;rounded=0;" parent="WIyWlLk6GJQsqaUBKTNV-1" edge="1">
          <mxGeometry width="50" height="50" relative="1" as="geometry">
            <mxPoint x="370" y="190" as="sourcePoint" />
            <mxPoint x="460" y="190" as="targetPoint" />
          </mxGeometry>
        </mxCell>
        <mxCell id="bF85zeCsFnRXaFZazc1--0" value="" style="endArrow=classic;html=1;rounded=0;" parent="WIyWlLk6GJQsqaUBKTNV-1" edge="1">
          <mxGeometry width="50" height="50" relative="1" as="geometry">
            <mxPoint x="149.5" y="510" as="sourcePoint" />
            <mxPoint x="149.5" y="590" as="targetPoint" />
          </mxGeometry>
        </mxCell>
        <mxCell id="bF85zeCsFnRXaFZazc1--1" value="" style="endArrow=classic;html=1;rounded=0;" parent="WIyWlLk6GJQsqaUBKTNV-1" edge="1">
          <mxGeometry width="50" height="50" relative="1" as="geometry">
            <mxPoint x="399.5" y="510" as="sourcePoint" />
            <mxPoint x="399.5" y="590" as="targetPoint" />
          </mxGeometry>
        </mxCell>
        <mxCell id="bF85zeCsFnRXaFZazc1--2" value="" style="endArrow=classic;html=1;rounded=0;" parent="WIyWlLk6GJQsqaUBKTNV-1" edge="1">
          <mxGeometry width="50" height="50" relative="1" as="geometry">
            <mxPoint x="659.5" y="510" as="sourcePoint" />
            <mxPoint x="659.5" y="590" as="targetPoint" />
          </mxGeometry>
        </mxCell>
        <mxCell id="bF85zeCsFnRXaFZazc1--3" value="DB ve Site Kontrolü" style="rounded=1;whiteSpace=wrap;html=1;fillColor=#dae8fc;gradientColor=#7ea6e0;strokeColor=#6c8ebf;" parent="WIyWlLk6GJQsqaUBKTNV-1" vertex="1">
          <mxGeometry x="90" y="590" width="120" height="60" as="geometry" />
        </mxCell>
        <mxCell id="bF85zeCsFnRXaFZazc1--4" value="Ürün yükleme, fiyatlandırma, taksit seçenekleri, resimler, açıklamalar" style="rounded=1;whiteSpace=wrap;html=1;fillColor=#f8cecc;strokeColor=#b85450;" parent="WIyWlLk6GJQsqaUBKTNV-1" vertex="1">
          <mxGeometry x="340" y="590" width="120" height="60" as="geometry" />
        </mxCell>
        <mxCell id="bF85zeCsFnRXaFZazc1--5" value="Ürün yelpazesinin incelenmesi, karar verilmesi, ürün satın alım işlemleri" style="rounded=1;whiteSpace=wrap;html=1;fillColor=#fff2cc;strokeColor=#d6b656;" parent="WIyWlLk6GJQsqaUBKTNV-1" vertex="1">
          <mxGeometry x="600" y="590" width="120" height="60" as="geometry" />
        </mxCell>
        <mxCell id="bF85zeCsFnRXaFZazc1--6" value="" style="endArrow=classic;startArrow=classic;html=1;rounded=0;" parent="WIyWlLk6GJQsqaUBKTNV-1" edge="1">
          <mxGeometry width="50" height="50" relative="1" as="geometry">
            <mxPoint x="229" y="479.5" as="sourcePoint" />
            <mxPoint x="319" y="479.5" as="targetPoint" />
          </mxGeometry>
        </mxCell>
        <mxCell id="bF85zeCsFnRXaFZazc1--8" value="" style="endArrow=classic;startArrow=classic;html=1;rounded=0;" parent="WIyWlLk6GJQsqaUBKTNV-1" edge="1">
          <mxGeometry width="50" height="50" relative="1" as="geometry">
            <mxPoint x="489" y="479.5" as="sourcePoint" />
            <mxPoint x="579" y="479.5" as="targetPoint" />
          </mxGeometry>
        </mxCell>
      </root>
    </mxGraphModel>
  </diagram>
</mxfile>
